<?xml version="1.0" encoding="UTF-8" standalone="no"?>
<!DOCTYPE svg PUBLIC "-//W3C//DTD SVG 1.1//EN" "http://www.w3.org/Graphics/SVG/1.1/DTD/svg11.dtd">
<svg width="100%" height="100%" viewBox="0 0 300 172" version="1.1" xmlns="http://www.w3.org/2000/svg" xmlns:xlink="http://www.w3.org/1999/xlink" xml:space="preserve" xmlns:serif="http://www.serif.com/" style="fill-rule:evenodd;clip-rule:evenodd;stroke-linejoin:round;stroke-miterlimit:2;">
    <g transform="matrix(1.00036,0,0,0.574929,0.251313,-0.0082164)">
        <rect x="-0.251" y="0.014" width="299.893" height="299.167" style="fill:rgb(235,235,235);"/>
    </g>
    <g transform="matrix(1,0,0,1,10.2162,3.8055)">
        <g transform="matrix(1,0,0,1,-85.5869,-123.709)">
            <path d="M301.118,186.437L292.337,186.437L292.337,234.837L284.804,234.837L284.804,233.837L283.804,233.837L283.804,232.837L282.804,232.837L282.804,231.837L281.804,231.837L281.804,230.837L280.804,230.837L280.804,186.437L275.671,186.437L275.671,185.437L274.671,185.437L274.671,184.437L273.671,184.437L273.671,183.437L272.671,183.437L272.671,182.437L271.671,182.437L271.671,176.837L297.204,176.837L297.204,177.837L298.204,177.837L298.204,178.837L299.204,178.837L299.204,179.837L300.204,179.837L300.204,180.837L301.204,180.837L301.204,185.864C301.642,183.288 302.698,181.196 304.371,179.589C306.637,177.411 309.726,176.323 313.637,176.323C315.771,176.323 317.648,176.6 319.271,177.156C320.893,177.711 322.248,178.567 323.337,179.723C323.436,179.828 323.534,179.935 323.629,180.045C323.876,180.258 324.113,180.484 324.337,180.723C324.436,180.828 324.534,180.935 324.629,181.045C324.876,181.258 325.113,181.484 325.337,181.723C325.436,181.828 325.534,181.935 325.629,182.045C325.876,182.258 326.113,182.484 326.337,182.723C326.436,182.828 326.534,182.935 326.629,183.045C326.876,183.258 327.113,183.484 327.337,183.723C328.426,184.878 329.293,186.334 329.937,188.089C330.582,189.845 331.015,191.9 331.237,194.256L324.837,195.989C324.806,195.568 324.767,195.155 324.72,194.75L323.837,194.989C323.806,194.568 323.767,194.155 323.72,193.75L322.837,193.989C322.806,193.568 322.767,193.155 322.72,192.75L321.837,192.989C321.806,192.568 321.767,192.155 321.72,191.75L320.837,191.989C320.704,190.211 320.437,188.578 320.037,187.089C319.972,186.844 319.898,186.607 319.816,186.378C319.171,186.208 318.444,186.123 317.637,186.123C315.771,186.123 314.315,186.623 313.271,187.623C312.226,188.623 311.704,190.1 311.704,192.056C311.704,193.7 311.982,195.056 312.537,196.123C312.686,196.408 312.859,196.695 313.057,196.983L320.371,203.389C321.01,203.945 321.625,204.534 322.216,205.157C322.557,205.481 322.89,205.814 323.216,206.157C323.557,206.481 323.89,206.814 324.216,207.157C324.557,207.481 324.89,207.814 325.216,208.157C326.915,209.769 328.433,211.635 329.771,213.756C331.326,216.223 332.104,219.145 332.104,222.523C332.104,225.189 331.548,227.489 330.437,229.423C329.326,231.356 327.804,232.834 325.871,233.856C323.937,234.878 321.704,235.389 319.171,235.389C316.06,235.389 313.471,234.723 311.404,233.389C310.452,232.775 309.607,232.053 308.867,231.222C308.515,230.909 308.181,230.575 307.867,230.222C307.515,229.909 307.181,229.575 306.867,229.222C306.515,228.909 306.181,228.575 305.867,228.222C304.543,227.043 303.488,225.588 302.704,223.856C301.637,221.5 301.015,218.767 300.837,215.656L307.504,213.856C307.533,214.272 307.57,214.686 307.615,215.096L308.504,214.856C308.533,215.272 308.57,215.686 308.615,216.096L309.504,215.856C309.533,216.272 309.57,216.686 309.615,217.096L310.504,216.856C310.533,217.272 310.57,217.686 310.615,218.096L311.504,217.856C311.637,219.767 311.937,221.611 312.404,223.389C312.57,224.022 312.774,224.614 313.016,225.165C313.662,225.359 314.38,225.456 315.171,225.456C317.126,225.456 318.604,224.911 319.604,223.823C320.604,222.734 321.104,221.167 321.104,219.123C321.104,216.678 320.548,214.711 319.437,213.223C319.171,212.866 318.888,212.508 318.589,212.15L310.171,204.723C309.663,204.279 309.194,203.823 308.762,203.355C308.409,203.028 308.076,202.695 307.762,202.355C307.409,202.028 307.076,201.695 306.762,201.355C306.409,201.028 306.076,200.695 305.762,200.355C304.191,198.9 303.016,197.323 302.237,195.623C301.393,193.778 300.971,191.5 300.971,188.789C300.971,187.967 301.02,187.183 301.118,186.437ZM112.537,230.837L111.537,230.837L111.537,176.837L122.404,176.837C126.004,176.837 128.982,177.315 131.337,178.27C132.964,178.93 134.3,179.866 135.344,181.077C135.702,181.386 136.036,181.72 136.344,182.077C136.702,182.386 137.036,182.72 137.344,183.077C137.702,183.386 138.036,183.72 138.344,184.077C139.247,184.856 139.989,185.787 140.571,186.87C141.704,188.981 142.271,191.748 142.271,195.17C142.271,197.259 142.048,199.159 141.604,200.87C141.16,202.581 140.448,204.026 139.471,205.204C138.493,206.381 137.204,207.237 135.604,207.77L143.271,234.837L136.004,234.837L135.725,233.837L135.004,233.837L134.725,232.837L134.004,232.837L133.725,231.837L133.004,231.837L132.725,230.837L132.004,230.837L126.053,209.504L123.071,209.504L123.071,234.837L115.537,234.837L115.537,233.837L114.537,233.837L114.537,232.837L113.537,232.837L113.537,231.837L112.537,231.837L112.537,230.837ZM130.461,186.696C129.356,186.39 128.004,186.237 126.404,186.237L123.071,186.237L123.071,200.077C124.693,199.997 126.049,199.739 127.137,199.304C128.471,198.77 129.448,197.859 130.071,196.57C130.693,195.281 131.004,193.481 131.004,191.17C131.004,189.404 130.823,187.912 130.461,186.696ZM147.137,230.837L146.137,230.837L146.137,176.837L167.071,176.837L167.071,177.837L168.071,177.837L168.071,178.837L169.071,178.837L169.071,179.837L170.071,179.837L170.071,180.837L171.071,180.837L171.071,186.437L157.671,186.437L157.671,200.304L164.537,200.304L164.537,201.304L165.537,201.304L165.537,202.304L166.537,202.304L166.537,203.304L167.537,203.304L167.537,204.304L168.537,204.304L168.537,209.637L157.671,209.637L157.671,225.437L167.204,225.437L167.204,226.437L168.204,226.437L168.204,227.437L169.204,227.437L169.204,228.437L170.204,228.437L170.204,229.437L171.204,229.437L171.204,234.837L150.137,234.837L150.137,233.837L149.137,233.837L149.137,232.837L148.137,232.837L148.137,231.837L147.137,231.837L147.137,230.837ZM174.271,230.837L173.271,230.837L173.271,176.837L186.671,176.837C189.915,176.837 192.504,177.426 194.437,178.604C195.344,179.156 196.135,179.823 196.812,180.605C197.17,180.914 197.503,181.247 197.812,181.605C198.17,181.914 198.503,182.247 198.812,182.605C199.17,182.914 199.503,183.247 199.812,183.605C201.055,184.681 202.008,186.047 202.671,187.704C203.56,189.926 204.004,192.615 204.004,195.77C204.004,198.615 203.504,201.081 202.504,203.17C201.504,205.259 200.026,206.87 198.071,208.004C196.115,209.137 193.671,209.704 190.737,209.704L184.804,209.704L184.804,234.837L177.271,234.837L177.271,233.837L176.271,233.837L176.271,232.837L175.271,232.837L175.271,231.837L174.271,231.837L174.271,230.837ZM192.465,186.582C191.376,186.352 190.001,186.237 188.337,186.237L184.804,186.237L184.804,200.299C186.73,200.261 188.263,200.019 189.404,199.57C190.648,199.081 191.537,198.226 192.071,197.004C192.604,195.781 192.871,194.059 192.871,191.837C192.871,189.656 192.735,187.904 192.465,186.582ZM209.027,228.309C207.524,226.985 206.405,225.283 205.671,223.204C204.737,220.559 204.271,217.459 204.271,213.904L204.271,193.437C204.271,189.881 204.748,186.826 205.704,184.27C206.66,181.715 208.215,179.759 210.371,178.404C212.526,177.048 215.426,176.37 219.071,176.37C222.715,176.37 225.604,177.059 227.737,178.437C228.631,179.014 229.421,179.693 230.109,180.473C230.463,180.785 230.796,181.119 231.109,181.473C231.463,181.785 231.796,182.119 232.109,182.473C232.463,182.785 232.796,183.119 233.109,183.473C234.546,184.739 235.634,186.35 236.371,188.304C237.326,190.837 237.804,193.881 237.804,197.437L237.804,217.97C237.804,221.481 237.326,224.548 236.371,227.17C235.415,229.793 233.871,231.826 231.737,233.27C229.604,234.715 226.715,235.437 223.071,235.437C219.426,235.437 216.515,234.726 214.337,233.304C213.468,232.736 212.698,232.071 212.027,231.309C211.673,230.997 211.339,230.663 211.027,230.309C210.673,229.997 210.339,229.663 210.027,229.309C209.673,228.997 209.339,228.663 209.027,228.309ZM225.61,186.505C224.876,186.326 224.029,186.237 223.071,186.237C221.071,186.237 219.548,186.626 218.504,187.404C217.46,188.181 216.76,189.293 216.404,190.737C216.048,192.181 215.871,193.904 215.871,195.904L215.871,219.57C215.871,221.57 216.048,223.315 216.404,224.804C216.438,224.945 216.474,225.083 216.514,225.218C217.256,225.408 218.108,225.504 219.071,225.504C221.071,225.504 222.582,225.093 223.604,224.27C224.626,223.448 225.315,222.293 225.671,220.804C226.026,219.315 226.204,217.57 226.204,215.57L226.204,191.904C226.204,189.904 226.026,188.181 225.671,186.737C225.651,186.659 225.631,186.581 225.61,186.505ZM242.204,230.837L241.204,230.837L241.204,176.837L252.071,176.837C255.671,176.837 258.648,177.315 261.004,178.27C262.631,178.93 263.966,179.866 265.01,181.077C265.369,181.386 265.702,181.72 266.01,182.077C266.369,182.386 266.702,182.72 267.01,183.077C267.369,183.386 267.702,183.72 268.01,184.077C268.913,184.856 269.656,185.787 270.237,186.87C271.371,188.981 271.937,191.748 271.937,195.17C271.937,197.259 271.715,199.159 271.271,200.87C270.826,202.581 270.115,204.026 269.137,205.204C268.16,206.381 266.871,207.237 265.271,207.77L272.937,234.837L265.671,234.837L265.392,233.837L264.671,233.837L264.392,232.837L263.671,232.837L263.392,231.837L262.671,231.837L262.392,230.837L261.671,230.837L255.72,209.504L252.737,209.504L252.737,234.837L245.204,234.837L245.204,233.837L244.204,233.837L244.204,232.837L243.204,232.837L243.204,231.837L242.204,231.837L242.204,230.837ZM260.127,186.696C259.023,186.39 257.671,186.237 256.071,186.237L252.737,186.237L252.737,200.077C254.36,199.997 255.715,199.739 256.804,199.304C258.137,198.77 259.115,197.859 259.737,196.57C260.36,195.281 260.671,193.481 260.671,191.17C260.671,189.404 260.49,187.912 260.127,186.696Z" style="stroke:black;stroke-width:4.17px;"/>
        </g>
        <g transform="matrix(1,0,0,1,-89.5869,-127.709)">
            <path d="M115.537,234.837L115.537,180.837L126.404,180.837C130.004,180.837 132.982,181.315 135.337,182.27C137.693,183.226 139.437,184.759 140.571,186.87C141.704,188.981 142.271,191.748 142.271,195.17C142.271,197.259 142.048,199.159 141.604,200.87C141.16,202.581 140.448,204.026 139.471,205.204C138.493,206.381 137.204,207.237 135.604,207.77L143.271,234.837L136.004,234.837L128.937,209.504L123.071,209.504L123.071,234.837L115.537,234.837ZM123.071,204.104L125.937,204.104C128.071,204.104 129.804,203.837 131.137,203.304C132.471,202.77 133.448,201.859 134.071,200.57C134.693,199.281 135.004,197.481 135.004,195.17C135.004,192.015 134.426,189.737 133.271,188.337C132.115,186.937 129.826,186.237 126.404,186.237L123.071,186.237L123.071,204.104Z" style="fill:rgb(194,255,38);fill-rule:nonzero;"/>
            <path d="M150.137,234.837L150.137,180.837L171.071,180.837L171.071,186.437L157.671,186.437L157.671,204.304L168.537,204.304L168.537,209.637L157.671,209.637L157.671,229.437L171.204,229.437L171.204,234.837L150.137,234.837Z" style="fill:rgb(194,255,38);fill-rule:nonzero;"/>
            <path d="M177.271,234.837L177.271,180.837L190.671,180.837C193.915,180.837 196.504,181.426 198.437,182.604C200.371,183.781 201.782,185.481 202.671,187.704C203.56,189.926 204.004,192.615 204.004,195.77C204.004,198.615 203.504,201.081 202.504,203.17C201.504,205.259 200.026,206.87 198.071,208.004C196.115,209.137 193.671,209.704 190.737,209.704L184.804,209.704L184.804,234.837L177.271,234.837ZM184.804,204.304L188.271,204.304C190.448,204.304 192.16,204.059 193.404,203.57C194.648,203.081 195.537,202.226 196.071,201.004C196.604,199.781 196.871,198.059 196.871,195.837C196.871,193.259 196.682,191.281 196.304,189.904C195.926,188.526 195.137,187.57 193.937,187.037C192.737,186.504 190.871,186.237 188.337,186.237L184.804,186.237L184.804,204.304Z" style="fill:rgb(194,255,38);fill-rule:nonzero;"/>
            <path d="M223.071,235.437C219.426,235.437 216.515,234.726 214.337,233.304C212.16,231.881 210.604,229.848 209.671,227.204C208.737,224.559 208.271,221.459 208.271,217.904L208.271,197.437C208.271,193.881 208.748,190.826 209.704,188.27C210.66,185.715 212.215,183.759 214.371,182.404C216.526,181.048 219.426,180.37 223.071,180.37C226.715,180.37 229.604,181.059 231.737,182.437C233.871,183.815 235.415,185.77 236.371,188.304C237.326,190.837 237.804,193.881 237.804,197.437L237.804,217.97C237.804,221.481 237.326,224.548 236.371,227.17C235.415,229.793 233.871,231.826 231.737,233.27C229.604,234.715 226.715,235.437 223.071,235.437ZM223.071,229.504C225.071,229.504 226.582,229.093 227.604,228.27C228.626,227.448 229.315,226.293 229.671,224.804C230.026,223.315 230.204,221.57 230.204,219.57L230.204,195.904C230.204,193.904 230.026,192.181 229.671,190.737C229.315,189.293 228.626,188.181 227.604,187.404C226.582,186.626 225.071,186.237 223.071,186.237C221.071,186.237 219.548,186.626 218.504,187.404C217.46,188.181 216.76,189.293 216.404,190.737C216.048,192.181 215.871,193.904 215.871,195.904L215.871,219.57C215.871,221.57 216.048,223.315 216.404,224.804C216.76,226.293 217.46,227.448 218.504,228.27C219.548,229.093 221.071,229.504 223.071,229.504Z" style="fill:rgb(194,255,38);fill-rule:nonzero;"/>
            <path d="M245.204,234.837L245.204,180.837L256.071,180.837C259.671,180.837 262.648,181.315 265.004,182.27C267.36,183.226 269.104,184.759 270.237,186.87C271.371,188.981 271.937,191.748 271.937,195.17C271.937,197.259 271.715,199.159 271.271,200.87C270.826,202.581 270.115,204.026 269.137,205.204C268.16,206.381 266.871,207.237 265.271,207.77L272.937,234.837L265.671,234.837L258.604,209.504L252.737,209.504L252.737,234.837L245.204,234.837ZM252.737,204.104L255.604,204.104C257.737,204.104 259.471,203.837 260.804,203.304C262.137,202.77 263.115,201.859 263.737,200.57C264.36,199.281 264.671,197.481 264.671,195.17C264.671,192.015 264.093,189.737 262.937,188.337C261.782,186.937 259.493,186.237 256.071,186.237L252.737,186.237L252.737,204.104Z" style="fill:rgb(194,255,38);fill-rule:nonzero;"/>
            <path d="M284.804,234.837L284.804,186.437L275.671,186.437L275.671,180.837L301.204,180.837L301.204,186.437L292.337,186.437L292.337,234.837L284.804,234.837Z" style="fill:rgb(194,255,38);fill-rule:nonzero;"/>
            <g transform="matrix(1,0,0,1,78.2327,65.1227)">
                <path d="M240.938,170.267C237.827,170.267 235.238,169.6 233.171,168.267C231.105,166.933 229.538,165.089 228.471,162.733C227.405,160.378 226.782,157.644 226.605,154.533L233.271,152.733C233.405,154.644 233.705,156.489 234.171,158.267C234.638,160.044 235.405,161.5 236.471,162.633C237.538,163.767 239.027,164.333 240.938,164.333C242.894,164.333 244.371,163.789 245.371,162.7C246.371,161.611 246.871,160.044 246.871,158C246.871,155.555 246.316,153.589 245.205,152.1C244.094,150.611 242.694,149.111 241.005,147.6L231.938,139.6C230.16,138.044 228.849,136.344 228.005,134.5C227.16,132.655 226.738,130.378 226.738,127.667C226.738,123.711 227.871,120.644 230.138,118.467C232.405,116.289 235.494,115.2 239.405,115.2C241.538,115.2 243.416,115.478 245.038,116.033C246.66,116.589 248.016,117.444 249.105,118.6C250.194,119.755 251.06,121.211 251.705,122.967C252.349,124.722 252.782,126.778 253.005,129.133L246.605,130.867C246.471,129.089 246.205,127.455 245.805,125.967C245.405,124.478 244.705,123.278 243.705,122.367C242.705,121.455 241.271,121 239.405,121C237.538,121 236.082,121.5 235.038,122.5C233.994,123.5 233.471,124.978 233.471,126.933C233.471,128.578 233.749,129.933 234.305,131C234.86,132.067 235.76,133.155 237.005,134.267L246.138,142.267C248.182,144.044 249.982,146.167 251.538,148.633C253.094,151.1 253.871,154.022 253.871,157.4C253.871,160.067 253.316,162.367 252.205,164.3C251.094,166.233 249.571,167.711 247.638,168.733C245.705,169.755 243.471,170.267 240.938,170.267Z" style="fill:rgb(194,255,38);fill-rule:nonzero;"/>
            </g>
        </g>
    </g>
    <g transform="matrix(0.713492,0,0,0.713492,81.9216,28.7557)">
        <g transform="matrix(0.442469,0,0,0.47824,202.242,48.888)">
            <rect x="96.253" y="130.838" width="29.428" height="20.592" style="fill:rgb(235,235,235);"/>
            <path d="M131.62,156.925L90.314,156.925L90.314,125.343L131.62,125.343L131.62,156.925ZM125.681,130.838L96.253,130.838L96.253,151.43L125.681,151.43L125.681,130.838Z"/>
        </g>
        <g transform="matrix(1,0,0,1,-2,1)">
            <path d="M246.048,110.632L253.295,117.536L260.636,110.632" style="fill:none;stroke:black;stroke-width:2.63px;stroke-miterlimit:1.5;"/>
        </g>
    </g>
</svg>
