<?xml version="1.0" encoding="UTF-8" standalone="no"?>
<!DOCTYPE svg PUBLIC "-//W3C//DTD SVG 1.1//EN" "http://www.w3.org/Graphics/SVG/1.1/DTD/svg11.dtd">
<svg width="100%" height="100%" viewBox="0 0 96 96" version="1.1" xmlns="http://www.w3.org/2000/svg" xmlns:xlink="http://www.w3.org/1999/xlink" xml:space="preserve" xmlns:serif="http://www.serif.com/" style="fill-rule:evenodd;clip-rule:evenodd;stroke-linejoin:round;stroke-miterlimit:2;">
    <g transform="matrix(0.369612,0,0,0.437244,-45.4142,-56.5986)">
        <rect x="122.87" y="129.444" width="259.732" height="219.557" style="fill:rgb(235,235,235);"/>
    </g>
    <g transform="matrix(1.16069,0,0,1.16069,-234.698,-208.507)">
        <g>
            <g transform="matrix(1,0,0,1,116.891,15.3412)">
                <path d="M134.118,235.723C133.684,235.518 133.327,235.167 133.118,234.723C132.684,234.518 132.327,234.167 132.118,233.723C131.684,233.518 131.327,233.167 131.118,232.723C130.582,232.471 130.164,231.995 129.997,231.397L125.154,214.034L125.154,234.837C125.154,235.988 124.221,236.92 123.071,236.92L115.537,236.92C114.704,236.92 113.984,236.431 113.651,235.723C113.213,235.517 112.858,235.162 112.651,234.723C112.213,234.517 111.858,234.162 111.651,233.723C111.213,233.517 110.858,233.162 110.651,232.723C109.944,232.39 109.454,231.671 109.454,230.837L109.454,176.837C109.454,175.686 110.387,174.754 111.537,174.754L122.404,174.754C126.321,174.754 129.557,175.3 132.12,176.34C134.022,177.111 135.586,178.205 136.816,179.597C137.173,179.913 137.509,180.249 137.816,180.597C138.173,180.913 138.509,181.249 138.816,181.597C139.173,181.913 139.509,182.249 139.818,182.599C140.862,183.523 141.726,184.618 142.406,185.885C143.675,188.249 144.354,191.338 144.354,195.17C144.354,197.451 144.106,199.526 143.62,201.394C143.093,203.426 142.235,205.136 141.074,206.534C140.256,207.519 139.269,208.329 138.105,208.956L145.275,234.269C145.453,234.897 145.326,235.573 144.932,236.093C144.539,236.614 143.924,236.92 143.271,236.92L136.004,236.92C135.187,236.92 134.457,236.444 134.118,235.723ZM128.728,188.465C128.036,188.367 127.261,188.32 126.404,188.32L125.154,188.32L125.154,197.73C125.594,197.635 125.997,197.516 126.364,197.369C127.196,197.037 127.806,196.469 128.195,195.665C128.711,194.594 128.921,193.09 128.921,191.17C128.921,190.166 128.859,189.264 128.728,188.465Z"/>
            </g>
            <g transform="matrix(1,0,0,1,112.891,11.3412)">
                <path d="M115.537,234.837L115.537,180.837L126.404,180.837C130.004,180.837 132.982,181.315 135.337,182.27C137.693,183.226 139.437,184.759 140.571,186.87C141.704,188.981 142.271,191.748 142.271,195.17C142.271,197.259 142.048,199.159 141.604,200.87C141.16,202.581 140.448,204.026 139.471,205.204C138.493,206.381 137.204,207.237 135.604,207.77L143.271,234.837L136.004,234.837L128.937,209.504L123.071,209.504L123.071,234.837L115.537,234.837ZM123.071,204.104L125.937,204.104C128.071,204.104 129.804,203.837 131.137,203.304C132.471,202.77 133.448,201.859 134.071,200.57C134.693,199.281 135.004,197.481 135.004,195.17C135.004,192.015 134.426,189.737 133.271,188.337C132.115,186.937 129.826,186.237 126.404,186.237L123.071,186.237L123.071,204.104Z" style="fill:rgb(194,255,38);fill-rule:nonzero;"/>
            </g>
        </g>
    </g>
</svg>
