<?xml version="1.0" encoding="UTF-8" standalone="no"?>
<!DOCTYPE svg PUBLIC "-//W3C//DTD SVG 1.1//EN" "http://www.w3.org/Graphics/SVG/1.1/DTD/svg11.dtd">
<svg width="100%" height="100%" viewBox="0 0 96 96" version="1.1" xmlns="http://www.w3.org/2000/svg" xmlns:xlink="http://www.w3.org/1999/xlink" xml:space="preserve" xmlns:serif="http://www.serif.com/" style="fill-rule:evenodd;clip-rule:evenodd;stroke-linejoin:round;stroke-miterlimit:2;">
    <g transform="matrix(0.369612,0,0,0.437244,-45.4142,-56.5986)">
        <rect x="122.87" y="129.444" width="259.732" height="219.557" style="fill:rgb(235,235,235);"/>
    </g>
    <g transform="matrix(1,0,0,1,-196.303,-170.961)">
        <g>
            <g transform="matrix(1,0,0,1,116.891,15.3412)">
                <path d="M112.537,230.837L111.537,230.837L111.537,176.837L122.404,176.837C126.004,176.837 128.982,177.315 131.337,178.27C132.964,178.93 134.3,179.866 135.344,181.077C135.702,181.386 136.036,181.72 136.344,182.077C136.702,182.386 137.036,182.72 137.344,183.077C137.702,183.386 138.036,183.72 138.344,184.077C139.247,184.856 139.989,185.787 140.571,186.87C141.704,188.981 142.271,191.748 142.271,195.17C142.271,197.259 142.048,199.159 141.604,200.87C141.16,202.581 140.448,204.026 139.471,205.204C138.493,206.381 137.204,207.237 135.604,207.77L143.271,234.837L136.004,234.837L135.725,233.837L135.004,233.837L134.725,232.837L134.004,232.837L133.725,231.837L133.004,231.837L132.725,230.837L132.004,230.837L126.053,209.504L123.071,209.504L123.071,234.837L115.537,234.837L115.537,233.837L114.537,233.837L114.537,232.837L113.537,232.837L113.537,231.837L112.537,231.837L112.537,230.837ZM130.461,186.696C129.356,186.39 128.004,186.237 126.404,186.237L123.071,186.237L123.071,200.077C124.693,199.997 126.049,199.739 127.137,199.304C128.471,198.77 129.448,197.859 130.071,196.57C130.693,195.281 131.004,193.481 131.004,191.17C131.004,189.404 130.823,187.912 130.461,186.696Z" style="stroke:black;stroke-width:4.17px;"/>
            </g>
            <g transform="matrix(1,0,0,1,112.891,11.3412)">
                <path d="M115.537,234.837L115.537,180.837L126.404,180.837C130.004,180.837 132.982,181.315 135.337,182.27C137.693,183.226 139.437,184.759 140.571,186.87C141.704,188.981 142.271,191.748 142.271,195.17C142.271,197.259 142.048,199.159 141.604,200.87C141.16,202.581 140.448,204.026 139.471,205.204C138.493,206.381 137.204,207.237 135.604,207.77L143.271,234.837L136.004,234.837L128.937,209.504L123.071,209.504L123.071,234.837L115.537,234.837ZM123.071,204.104L125.937,204.104C128.071,204.104 129.804,203.837 131.137,203.304C132.471,202.77 133.448,201.859 134.071,200.57C134.693,199.281 135.004,197.481 135.004,195.17C135.004,192.015 134.426,189.737 133.271,188.337C132.115,186.937 129.826,186.237 126.404,186.237L123.071,186.237L123.071,204.104Z" style="fill:rgb(194,255,38);fill-rule:nonzero;"/>
            </g>
        </g>
        <g transform="matrix(0.713492,0,0,0.713492,84.2022,106.217)">
            <g transform="matrix(0.442469,0,0,0.47824,207.849,54.4942)">
                <path d="M89.918,142.638L86.75,142.638L86.75,122.046L116.178,122.046L116.178,124.976L119.346,124.976L119.346,127.907L122.513,127.907L122.513,130.838L125.681,130.838L125.681,151.43L96.253,151.43L96.253,148.499L93.085,148.499L93.085,145.569L89.918,145.569L89.918,142.638Z"/>
                <path d="M121.652,119.911C123.077,120.468 124.219,121.524 124.82,122.842C126.245,123.398 127.386,124.454 127.988,125.773C130.122,126.606 131.62,128.56 131.62,130.838L131.62,151.43C131.62,154.465 128.961,156.925 125.681,156.925L96.253,156.925C93.791,156.925 91.679,155.539 90.779,153.564C89.354,153.008 88.212,151.952 87.611,150.634C86.186,150.078 85.045,149.022 84.443,147.703C82.309,146.87 80.811,144.916 80.811,142.638L80.811,122.046C80.811,119.011 83.47,116.551 86.75,116.551L116.178,116.551C118.64,116.551 120.752,117.937 121.652,119.911ZM89.918,142.638L89.918,145.569L93.085,145.569L93.085,148.499L96.253,148.499L96.253,151.43L125.681,151.43L125.681,130.838L122.513,130.838L122.513,127.907L119.346,127.907L119.346,124.976L116.178,124.976L116.178,122.046L86.75,122.046L86.75,142.638L89.918,142.638Z"/>
            </g>
            <g transform="matrix(0.442469,0,0,0.47824,202.242,48.888)">
                <rect x="96.253" y="130.838" width="29.428" height="20.592" style="fill:rgb(235,235,235);"/>
                <path d="M131.62,130.838L131.62,151.43C131.62,154.465 128.961,156.925 125.681,156.925L96.253,156.925C92.973,156.925 90.314,154.465 90.314,151.43L90.314,130.838C90.314,127.803 92.973,125.343 96.253,125.343L125.681,125.343C128.961,125.343 131.62,127.803 131.62,130.838ZM125.681,130.838L96.253,130.838L96.253,151.43L125.681,151.43L125.681,130.838Z"/>
            </g>
            <g transform="matrix(1,0,0,1,-2,1)">
                <path d="M246.048,110.632L253.295,117.536L260.636,110.632" style="fill:none;stroke:black;stroke-width:2.63px;stroke-miterlimit:1.5;"/>
            </g>
        </g>
    </g>
</svg>
